<svg width="85" height="73" viewBox="0 0 85 73" fill="none" xmlns="http://www.w3.org/2000/svg">
<g clip-path="url(#clip0_964_17570)" filter="url(#filter0_d_964_17570)">
<path d="M71.926 28.1614C69.531 28.1614 67.4234 29.1556 65.8747 30.7111C60.1747 26.7503 52.4949 24.2006 43.9848 23.928L48.4075 3.91556L62.4898 7.09061C62.4898 10.5543 65.2999 13.3766 68.7486 13.3766C72.2613 13.3766 75.0873 10.4741 75.0873 7.01043C75.0873 3.54674 72.2772 0.644287 68.7486 0.644287C66.2898 0.644287 64.1663 2.1356 63.1125 4.17213L47.5613 0.70843C46.7789 0.499966 46.0125 1.06121 45.805 1.84696L40.9512 23.912C32.505 24.2648 24.905 26.8144 19.189 30.7752C17.6403 29.1556 15.4529 28.1614 13.0579 28.1614C4.18059 28.1614 1.27471 40.124 9.4016 44.2131C9.1142 45.4799 8.98647 46.8269 8.98647 48.1739C8.98647 61.6118 24.0587 72.5 42.5638 72.5C61.1487 72.5 76.2209 61.6118 76.2209 48.1739C76.2209 46.8269 76.0772 45.4158 75.726 44.149C83.6932 40.0438 80.7554 28.1614 71.926 28.1614ZM22.2865 45.063C22.2865 41.5351 25.0966 38.6968 28.6251 38.6968C32.0739 38.6968 34.884 41.5191 34.884 45.063C34.884 48.5267 32.0739 51.349 28.6251 51.349C25.1125 51.365 22.2865 48.5267 22.2865 45.063ZM56.5024 60.0563C50.6907 65.8933 34.2932 65.8933 28.4814 60.0563C27.8428 59.4951 27.8428 58.5008 28.4814 57.8594C29.0403 57.2982 30.0302 57.2982 30.589 57.8594C35.0276 62.4296 49.7487 62.5098 54.3789 57.8594C54.9377 57.2982 55.9276 57.2982 56.4865 57.8594C57.1411 58.5008 57.1411 59.4951 56.5024 60.0563ZM56.3747 51.365C52.926 51.365 50.1159 48.5427 50.1159 45.079C50.1159 41.5512 52.926 38.7129 56.3747 38.7129C59.8873 38.7129 62.7134 41.5351 62.7134 45.079C62.6974 48.5267 59.8873 51.365 56.3747 51.365Z" fill="#737373"/>
</g>
<defs>
<filter id="filter0_d_964_17570" x="0.5" y="0.5" width="84" height="80" filterUnits="userSpaceOnUse" color-interpolation-filters="sRGB">
<feFlood flood-opacity="0" result="BackgroundImageFix"/>
<feColorMatrix in="SourceAlpha" type="matrix" values="0 0 0 0 0 0 0 0 0 0 0 0 0 0 0 0 0 0 127 0" result="hardAlpha"/>
<feOffset dy="4"/>
<feGaussianBlur stdDeviation="2"/>
<feComposite in2="hardAlpha" operator="out"/>
<feColorMatrix type="matrix" values="0 0 0 0 0 0 0 0 0 0 0 0 0 0 0 0 0 0 0.25 0"/>
<feBlend mode="normal" in2="BackgroundImageFix" result="effect1_dropShadow_964_17570"/>
<feBlend mode="normal" in="SourceGraphic" in2="effect1_dropShadow_964_17570" result="shape"/>
</filter>
<clipPath id="clip0_964_17570">
<rect width="76" height="72" fill="white" transform="translate(4.5 0.5)"/>
</clipPath>
</defs>
</svg>
